<svg width="436" height="59" viewBox="0 0 436 59" fill="none" xmlns="http://www.w3.org/2000/svg">
<path d="M22.154 58.2871C33.674 58.2871 43.389 52.093 44.6862 41.4517C46.9707 22.7105 20.0358 26.4428 21.2845 16.1987C21.6136 13.4986 23.9866 11.7516 27.1066 11.7516C30.7866 11.7516 32.9472 14.3722 32.4173 19.3751L46.1457 18.9781C47.4209 7.86039 40.4206 0.31623 28.3406 0.31623C16.8206 0.316231 8.37838 7.22509 7.21675 16.7545C4.96125 35.2576 31.3149 33.6693 30.2597 42.3253C29.9403 44.9459 27.5479 46.8518 23.6279 46.8518C18.8279 46.8518 15.9861 43.9135 16.6056 38.8311L2.60564 38.8311C1.46337 48.2018 7.19398 58.2871 22.154 58.2871ZM93.7775 1.11035C91.251 21.8369 90.1984 31.1281 90.0492 36.2899L69.2175 1.11035L56.5775 1.11035L49.7045 57.493L62.9845 57.493C65.4724 37.0841 66.5153 27.8723 66.5748 22.7899L87.5445 57.493L100.185 57.493L107.058 1.11035L93.7775 1.11035ZM241.753 1.11035C233.881 23.0281 230.084 33.8282 228.333 40.9753C228.065 33.987 226.719 22.7105 223.993 1.11035L209.113 1.11035C200.715 24.0605 196.947 34.6223 195.158 42.087C194.979 35.0193 193.784 23.8222 191.193 1.11035L176.793 1.11035L184.8 57.493L200.16 57.493C209.146 34.3046 212.727 24.6164 214.219 17.6281C213.956 24.3781 214.996 34.2252 217.92 57.493L233.6 57.493L255.513 1.11035L241.753 1.11035ZM284.008 57.493L286.631 35.9723L306.631 35.9723L308.083 24.0605L288.083 24.0605L289.39 13.3398L311.79 13.3398L313.281 1.11035L277.281 1.11035L270.408 57.493L284.008 57.493ZM418.617 1.11035C410.27 11.831 407.11 16.7545 405.971 19.534C405.51 16.7545 403.71 11.831 397.817 1.11035L381.337 1.11035L397.129 29.0634L374.464 57.493L390.944 57.493C399.07 46.6135 402.33 41.5311 403.587 38.4341C404.09 41.5311 406.03 46.6135 411.744 57.493L428.224 57.493L412.477 28.5075L435.097 1.11035L418.617 1.11035Z" fill="white"/>
<path d="M137.038 58.2871C153.998 58.2871 167.719 46.137 169.772 29.3017C171.824 12.4663 161.065 0.31623 144.105 0.31623C127.145 0.31623 113.424 12.4663 111.372 29.3017C109.319 46.137 120.078 58.2871 137.038 58.2871ZM138.587 45.5812C129.227 45.5812 123.887 38.1958 124.972 29.3017C126.056 20.4075 133.196 13.0222 142.556 13.0222C151.916 13.0222 157.256 20.4075 156.172 29.3017C155.087 38.1958 147.947 45.5812 138.587 45.5812ZM341.023 58.2871C357.983 58.2871 371.704 46.137 373.756 29.3017C375.808 12.4663 365.049 0.31623 348.089 0.31623C331.129 0.31623 317.408 12.4663 315.356 29.3017C313.304 46.137 324.063 58.2871 341.023 58.2871ZM342.572 45.5812C333.212 45.5812 327.872 38.1958 328.956 29.3017C330.04 20.4075 337.18 13.0222 346.54 13.0222C355.9 13.0222 361.24 20.4075 360.156 29.3017C359.072 38.1958 351.932 45.5812 342.572 45.5812Z" fill="#63DEC7"/>
</svg>
